<?xml version="1.0" encoding="UTF-8"?> <svg xmlns="http://www.w3.org/2000/svg" version="1.1" id="Layer_1" x="0" y="0" viewBox="0 0 800 270" style="enable-background:new 0 0 800 270" xml:space="preserve"><style>.st0{fill:#097416}.st1{fill:#5ebe1c}</style><g id="G"><path class="st0" d="M45.9 46.9 13.2 14.2v95c0 36.4 29.8 66.2 66.2 66.2h95.3l-44.3-46s-12.4 17.8-46.5 13.9c-32.9-3.7-37.7-29.1-37.7-31.8l-.3-64.6"></path><path class="st1" d="M174.7 175.5 97.4 99.3s50.1-18 77.3 36.8v39.4zM13.2 14.2h97.5c6.6 0 70.9 10.3 64 88.7-18.8-20.2-33-20.5-33-20.5-5.7-33.2-34.4-34.8-34.4-34.8H45.9L13.2 14.2z"></path></g><path class="st1" d="M202.6 18.6c12.9-1.9 32.1-3.3 53.5-3.3 26.3 0 44.8 3.6 57.4 12.6 10.5 7.6 16.3 18.8 16.3 33.5 0 20.4-16.1 34.4-31.3 39.4v.7c12.4 4.5 19.2 15.2 23.7 29.9 5.5 18 11.1 38.9 14.5 45.1h-41.1c-2.9-4.5-7.1-17.6-12.4-37.3-4.7-19.9-12.4-25.4-28.7-25.6h-12.1v62.9h-39.8V18.6zm39.8 68.8h15.8c20 0 31.9-9 31.9-23 0-14.7-11.1-22.1-29.5-22.3-9.7 0-15.3.7-18.2 1.2v44.1zM464.4 108.8h-65.3v38h73v29.7H358.8v-160h109.6v29.7h-69.3v33.2h65.3v29.4zM605.1 108.8h-65.3v38h73v29.7H499.4v-160H609v29.7h-69.3v33.2H605l.1 29.4zM640.1 176.5v-160H687l36.9 58.7c10.5 16.9 21.1 36.8 29 54.9h.8c-2.6-21.1-3.4-42.7-3.4-66.7v-47H787v160h-42.1L707 114.7c-10.5-17.1-22.1-37.8-30.8-56.5l-.8.2c1.1 21.1 1.6 43.7 1.6 69.8v48.2h-36.9v.1z"></path><g><path class="st0" d="M62.3 254.2c-2.6 1.3-8.3 2.7-15.4 2.7-19 0-30.5-11.9-30.5-30.1 0-19.7 13.7-31.6 31.9-31.6 7.2 0 12.3 1.5 14.6 2.7l-2.4 8.7c-2.8-1.2-6.7-2.3-11.7-2.3-12.2 0-20.9 7.6-20.9 22 0 13.1 7.7 21.6 20.9 21.6 4.4 0 9.1-.9 11.9-2.2l1.6 8.5zM71.7 196.2h10.9v50.7h24.6v9.1H71.7v-59.8zM148.9 229.5h-22.5V247h25.2v9h-36.1v-59.8h34.8v9h-23.9v15.4h22.5v8.9zM173.1 239.1l-5.1 17h-11.3l19.2-59.8h13.9l19.4 59.8h-11.7l-5.4-17h-19zm17.1-8.3-4.7-14.7c-1.2-3.6-2.1-7.7-3-11.2h-.2c-.9 3.5-1.8 7.6-2.8 11.2l-4.6 14.7h15.3zM217.6 256v-59.8H230l15.4 25.6c4 6.7 7.5 13.6 10.2 20.1h.2c-.7-8-1-15.7-1-24.8v-20.9h10.1V256h-11.3L238 229.7c-3.8-6.6-7.8-13.9-10.7-20.7l-.3.1c.4 7.7.5 15.6.5 25.5V256h-9.9zM288.5 196.2V256h-10.9v-59.8h10.9zM301 256v-59.8h12.4l15.4 25.6c4 6.7 7.5 13.6 10.2 20.1h.2c-.7-8-1-15.7-1-24.8v-20.9h10.1V256H337l-15.6-26.3c-3.8-6.6-7.8-13.9-10.7-20.7l-.3.1c.4 7.7.5 15.6.5 25.5V256H301zM408.9 253.3c-3.8 1.4-11.3 3.4-19.3 3.4-10.1 0-17.7-2.6-23.4-8-5.3-5.1-8.4-13-8.3-22 0-18.9 13.5-31.1 33.3-31.1 7.4 0 13.1 1.5 15.9 2.8l-2.4 8.8c-3.3-1.4-7.3-2.6-13.6-2.6-12.8 0-21.7 7.5-21.7 21.5 0 13.6 8.3 21.7 20.8 21.7 3.9 0 6.8-.5 8.3-1.2v-14.9h-10.6V223H409l-.1 30.3zM438.2 244.1c3.6 2 8.9 3.8 14.5 3.8 7 0 10.9-3.3 10.9-8.2 0-4.5-3-7.2-10.6-9.9-9.9-3.5-16.2-8.8-16.2-17.4 0-9.8 8.2-17.2 21.1-17.2 6.5 0 11.3 1.4 14.4 3l-2.7 8.8c-2.1-1.2-6.3-2.8-11.9-2.8-6.9 0-9.9 3.7-9.9 7.2 0 4.6 3.5 6.7 11.4 9.9 10.4 3.9 15.4 9.1 15.4 17.7 0 9.6-7.3 17.9-22.7 17.9-6.3 0-12.9-1.8-16.2-3.7l2.5-9.1zM518 229.5h-22.5V247h25.2v9h-36.1v-59.8h34.8v9h-23.9v15.4H518v8.9zM530.2 197c4.1-.7 10.2-1.2 16.5-1.2 8.6 0 14.5 1.4 18.5 4.8 3.3 2.8 5.1 6.9 5.1 12 0 7.7-5.2 13-10.8 15v.3c4.3 1.6 6.8 5.8 8.3 11.5 1.9 7.5 3.5 14.4 4.7 16.7h-11.3c-.9-1.8-2.3-6.7-4-14.1-1.7-7.8-4.5-10.3-10.7-10.5H541V256h-10.8v-59zm10.8 26.4h6.5c7.4 0 12-3.9 12-9.9 0-6.6-4.6-9.6-11.7-9.6-3.5 0-5.7.3-6.7.5l-.1 19zM594.7 256l-19.3-59.8h11.9l8.2 27.2c2.3 7.5 4.3 14.6 5.9 21.8h.2c1.6-7.1 3.7-14.4 6.1-21.7l8.7-27.3H628L607.2 256h-12.5zM645.3 196.2V256h-10.9v-59.8h10.9zM700.7 254.2c-2.6 1.3-8.3 2.7-15.4 2.7-19 0-30.5-11.9-30.5-30.1 0-19.7 13.7-31.6 31.9-31.6 7.2 0 12.3 1.5 14.6 2.7l-2.4 8.7c-2.8-1.2-6.7-2.3-11.7-2.3-12.2 0-20.9 7.6-20.9 22 0 13.1 7.7 21.6 20.9 21.6 4.4 0 9.1-.9 11.9-2.2l1.6 8.5zM743.5 229.5H721V247h25.2v9H710v-59.8h34.8v9h-23.9v15.4h22.5v8.9h.1zM755.4 244.1c3.6 2 8.9 3.8 14.5 3.8 7 0 10.9-3.3 10.9-8.2 0-4.5-3-7.2-10.6-9.9-9.9-3.5-16.2-8.8-16.2-17.4 0-9.8 8.2-17.2 21.1-17.2 6.5 0 11.3 1.4 14.4 3l-2.7 8.8c-2.1-1.2-6.3-2.8-11.9-2.8-6.9 0-9.9 3.7-9.9 7.2 0 4.6 3.5 6.7 11.4 9.9 10.4 3.9 15.4 9.1 15.4 17.7 0 9.6-7.3 17.9-22.7 17.9-6.3 0-12.9-1.8-16.2-3.7l2.5-9.1z"></path></g></svg> 